<svg version="1.1" width="10" height="10"><svg width="10" height="10" viewBox="0 0 65 76" fill="none"> <path fill-rule="evenodd" clip-rule="evenodd" d="M32.5268 16.6074L26.8699 10.9505C25.3078 9.38841 22.7752 9.38841 21.2131 10.9505L2.82831 29.3353C1.26621 30.8974 1.26621 33.43 2.82831 34.9921L21.2131 53.3769C22.7752 54.939 25.3078 54.939 26.8699 53.3769L45.2547 34.9921C46.8168 33.43 46.8168 30.8974 45.2547 29.3353L38.8907 22.9713L35.3552 26.5068L39.5979 30.7495C40.3789 31.5305 40.3789 32.7969 39.5979 33.5779L25.4557 47.72C24.6747 48.5011 23.4083 48.5011 22.6273 47.72L8.48516 33.5779C7.70412 32.7969 7.70412 31.5305 8.48516 30.7495L22.6273 16.6074C23.4083 15.8263 24.6747 15.8263 25.4557 16.6074L28.9913 20.1429L32.5268 16.6074Z" fill="#64FFDA"/> <path fill-rule="evenodd" clip-rule="evenodd" d="M42.9517 10.7883C41.3896 9.22617 38.857 9.22617 37.2949 10.7883L18.9101 29.173C17.348 30.7351 17.348 33.2678 18.9101 34.8299L25.274 41.1939L28.8096 37.6583L24.5669 33.4157C23.7859 32.6346 23.7859 31.3683 24.5669 30.5873L38.7091 16.4451C39.4901 15.6641 40.7565 15.6641 41.5375 16.4451L55.6796 30.5873C56.4607 31.3683 56.4607 32.6346 55.6796 33.4157L41.5375 47.5578C40.7565 48.3389 39.4901 48.3389 38.7091 47.5578L35.699 44.5478L32.1635 48.0833L37.2949 53.2147C38.857 54.7768 41.3896 54.7768 42.9517 53.2147L61.3365 34.8299C62.8986 33.2678 62.8986 30.7351 61.3365 29.173L42.9517 10.7883Z" fill="#1FA859"/> </svg></svg>