<?xml version="1.0" standalone="no"?>
<!DOCTYPE svg PUBLIC "-//W3C//DTD SVG 20010904//EN"
 "http://www.w3.org/TR/2001/REC-SVG-20010904/DTD/svg10.dtd">
<svg version="1.0" xmlns="http://www.w3.org/2000/svg"
 width="700.000000pt" height="700.000000pt" viewBox="0 0 700.000000 700.000000"
 preserveAspectRatio="xMidYMid meet">
<metadata>
Created by potrace 1.14, written by Peter Selinger 2001-2017
</metadata>
<g transform="translate(0.000000,700.000000) scale(0.100000,-0.100000)"
fill="#000000" stroke="none">
<path d="M4124 6105 c-35 -8 -83 -28 -115 -48 -30 -20 -166 -148 -304 -286
l-250 -251 -250 248 c-137 137 -268 260 -290 274 -101 67 -235 73 -352 19 -58
-28 -136 -102 -951 -918 -1011 -1011 -946 -935 -947 -1103 0 -169 -72 -85 939
-1097 712 -714 901 -898 946 -922 103 -55 224 -57 333 -5 42 19 110 81 320
290 l266 266 256 -257 c227 -227 265 -261 323 -288 98 -46 217 -45 320 4 37
17 237 211 911 883 474 474 880 882 901 908 99 123 109 295 25 428 -13 21
-419 433 -903 917 -724 723 -890 884 -934 906 -46 23 -74 30 -163 42 -11 1
-47 -3 -81 -10z m156 -586 c51 -25 1371 -1348 1392 -1396 23 -50 22 -94 -2
-146 -24 -50 -1335 -1364 -1387 -1391 -44 -22 -90 -25 -140 -8 -32 10 -76 48
-190 162 -81 82 -149 153 -150 157 -1 4 203 213 453 463 336 335 463 468 482
505 35 67 50 156 40 225 -18 117 -37 141 -374 480 l-314 315 -160 -160 c-88
-88 -160 -163 -160 -166 0 -4 89 -96 198 -205 109 -110 206 -211 216 -226 23
-35 27 -111 9 -158 -11 -27 -202 -224 -701 -723 -680 -677 -688 -685 -734
-691 -108 -16 -67 -51 -811 692 -450 451 -683 690 -696 716 -21 45 -19 111 5
157 8 16 318 333 688 703 721 721 708 709 796 699 58 -7 89 -31 241 -182 l148
-146 -463 -465 c-292 -293 -471 -480 -484 -505 -65 -132 -50 -286 37 -395 35
-44 607 -620 616 -620 2 0 76 73 165 162 l160 161 -209 209 c-166 166 -212
218 -224 251 -17 50 -14 93 7 139 9 18 321 338 694 710 526 526 685 679 712
687 49 14 99 10 140 -10z"/>
</g>
</svg>
